<svg width="12" height="12" viewBox="0 0 12 12" fill="none" xmlns="http://www.w3.org/2000/svg">
<path d="M12.8069 6.7208L12.8077 6.71967C13.111 6.29664 12.8097 5.70508 12.2871 5.70508H11.4627C11.1185 5.70508 10.8001 5.87214 10.6022 6.14594L10.6019 6.14642L8.24427 9.41586L7.39945 8.24356C7.39921 8.24324 7.39898 8.24292 7.39875 8.24259C7.19821 7.9625 6.87567 7.80039 6.5373 7.80039H5.71289C5.19032 7.80039 4.88899 8.39196 5.19228 8.81498L5.19318 8.81622L7.38418 11.8523C7.38434 11.8526 7.38451 11.8528 7.38468 11.853C7.48264 11.9895 7.61168 12.1008 7.76113 12.1775C7.91084 12.2544 8.07671 12.2946 8.24501 12.2946C8.41332 12.2946 8.5792 12.2544 8.72891 12.1775C8.87838 12.1008 9.00744 11.9895 9.10541 11.853C9.10556 11.8528 9.10571 11.8526 9.10586 11.8523L12.8069 6.7208ZM1.625 9C1.625 4.92731 4.92731 1.625 9 1.625C13.0727 1.625 16.375 4.92731 16.375 9C16.375 13.0727 13.0727 16.375 9 16.375C4.92731 16.375 1.625 13.0727 1.625 9Z" fill="#653CAD" stroke="#171F3F"/>
</svg>
