<svg width="28" height="28" viewBox="0 0 28 28" fill="none" xmlns="http://www.w3.org/2000/svg">
<path d="M13.9875 0.383302C6.25937 0.380177 0 6.63643 0 14.3583C0 20.4646 3.91562 25.6552 9.36875 27.5614C10.1031 27.7458 9.99062 27.2239 9.99062 26.8677V24.4458C5.75 24.9427 5.57812 22.1364 5.29375 21.6677C4.71875 20.6864 3.35937 20.4364 3.76562 19.9677C4.73125 19.4708 5.71562 20.0927 6.85625 21.7771C7.68125 22.9989 9.29062 22.7927 10.1062 22.5896C10.2844 21.8552 10.6656 21.1989 11.1906 20.6896C6.79687 19.9021 4.96562 17.2208 4.96562 14.0333C4.96562 12.4864 5.475 11.0646 6.475 9.91768C5.8375 8.02705 6.53437 6.4083 6.62812 6.16768C8.44375 6.00518 10.3312 7.46768 10.4781 7.5833C11.5094 7.30518 12.6875 7.1583 14.0062 7.1583C15.3312 7.1583 16.5125 7.31143 17.5531 7.59268C17.9062 7.32393 19.6562 6.06768 21.3437 6.2208C21.4344 6.46143 22.1156 8.04268 21.5156 9.9083C22.5281 11.0583 23.0437 12.4927 23.0437 14.0427C23.0437 17.2364 21.2 19.9208 16.7937 20.6958C17.1712 21.067 17.4708 21.5096 17.6752 21.9979C17.8797 22.4861 17.9848 23.0102 17.9844 23.5396V27.0552C18.0094 27.3364 17.9844 27.6146 18.4531 27.6146C23.9875 25.7489 27.9719 20.5208 27.9719 14.3614C27.9719 6.63643 21.7094 0.383302 13.9875 0.383302Z" fill="white"/>
</svg>
