<svg width="42" height="42" viewBox="0 0 42 42" fill="none" xmlns="http://www.w3.org/2000/svg">
<path d="M20.9812 0.575197C9.38906 0.57051 0 9.95489 0 21.5377C0 30.6971 5.87344 38.483 14.0531 41.3424C15.1547 41.6189 14.9859 40.8361 14.9859 40.3018V36.6689C8.625 37.4143 8.36719 33.2049 7.94062 32.5018C7.07812 31.0299 5.03906 30.6549 5.64844 29.9518C7.09687 29.2064 8.57344 30.1393 10.2844 32.6658C11.5219 34.4986 13.9359 34.1893 15.1594 33.8846C15.4266 32.783 15.9984 31.7986 16.7859 31.0346C10.1953 29.8533 7.44844 25.8314 7.44844 21.0502C7.44844 18.7299 8.2125 16.5971 9.7125 14.8768C8.75625 12.0408 9.80156 9.6127 9.94219 9.25176C12.6656 9.00801 15.4969 11.2018 15.7172 11.3752C17.2641 10.958 19.0312 10.7377 21.0094 10.7377C22.9969 10.7377 24.7687 10.9674 26.3297 11.3893C26.8594 10.9861 29.4844 9.10176 32.0156 9.33145C32.1516 9.69238 33.1734 12.0643 32.2734 14.8627C33.7922 16.5877 34.5656 18.7393 34.5656 21.0643C34.5656 25.8549 31.8 29.8814 25.1906 31.0439C25.7567 31.6007 26.2062 32.2646 26.5129 32.997C26.8195 33.7294 26.9771 34.5156 26.9766 35.3096V40.583C27.0141 41.0049 26.9766 41.4221 27.6797 41.4221C35.9812 38.6236 41.9578 30.7814 41.9578 21.5424C41.9578 9.95488 32.5641 0.575197 20.9812 0.575197Z" fill="#171F3F"/>
</svg>
